<?xml version="1.0" encoding="iso-8859-1"?>
<!-- Generator: Adobe Illustrator 21.0.0, SVG Export Plug-In . SVG Version: 6.00 Build 0)  -->
<svg xmlns="http://www.w3.org/2000/svg" xmlns:xlink="http://www.w3.org/1999/xlink" version="1.1" id="Capa_1" x="0px" y="0px" viewBox="0 0 512.011 512.011" style="enable-background:new 0 0 512.011 512.011;" xml:space="preserve" width="512" height="512">
<g>
	<g>
		<path d="M322.011,0.005c-35.911,0-70.889,10.08-101.152,29.149c-4.673,2.945-6.074,9.119-3.129,13.792    c2.944,4.674,9.12,6.075,13.792,3.129c27.067-17.055,58.358-26.07,90.49-26.07c93.738,0,170,76.262,170,170s-76.262,170-170,170    s-170-76.262-170-170c0-32.137,9.015-63.428,26.071-90.489c2.945-4.673,1.544-10.848-3.128-13.792    c-4.672-2.946-10.848-1.545-13.792,3.128c-19.071,30.26-29.151,65.237-29.151,101.153c0,41.58,13.436,80.075,36.179,111.394    l-17.102,17.102c-11.149-5.311-24.921-3.363-34.138,5.854L8.772,432.533c-11.696,11.697-11.697,30.729,0,42.427l28.284,28.284    c5.651,5.65,13.185,8.763,21.213,8.763c8.029,0,15.563-3.112,21.213-8.763l108.177-108.177c5.65-5.651,8.763-13.185,8.763-21.214    c0-4.555-1.004-8.949-2.902-12.931l17.096-17.097c31.319,22.744,69.814,36.179,111.394,36.179c104.767,0,190-85.233,190-190    S426.778,0.005,322.011,0.005z M173.518,380.925L65.341,489.101c-1.873,1.873-4.384,2.905-7.071,2.905    c-2.687,0-5.198-1.032-7.071-2.905l-28.284-28.284c-3.899-3.898-3.899-10.243,0-14.142l108.177-108.178    c1.949-1.949,4.509-2.924,7.07-2.924c2.561,0,5.122,0.975,7.071,2.924l28.285,28.285c1.873,1.873,2.904,4.384,2.904,7.07    S175.392,379.051,173.518,380.925z M180.589,345.569l-14.142-14.143l14.396-14.396c4.465,4.957,9.185,9.677,14.142,14.142    L180.589,345.569z"/>
		<path d="M440.419,265.399c4.853,2.631,10.925,0.828,13.556-4.027c11.8-21.775,18.036-46.454,18.036-71.367    c0-82.71-67.29-150-150-150c-82.71,0-150,67.29-150,150s67.29,150,150,150c24.915,0,49.594-6.237,71.367-18.037    c4.855-2.632,6.659-8.701,4.027-13.557c-2.631-4.856-8.704-6.657-13.557-4.027c-18.857,10.22-40.24,15.621-61.838,15.621    c-71.682,0-130-58.317-130-130s58.318-130,130-130c71.683,0,130,58.317,130,130c0,21.596-5.401,42.979-15.62,61.838    C433.759,256.699,435.563,262.768,440.419,265.399z"/>
		<path d="M194.734,72.723c2.401,0,4.811-0.859,6.727-2.602c4.086-3.715,4.388-10.039,0.673-14.126    c-3.716-4.087-10.04-4.387-14.126-0.673l-0.005,0.005c-4.086,3.715-4.385,10.037-0.67,14.124    C189.306,71.622,192.015,72.723,194.734,72.723z"/>
		<path d="M421.011,298.998c2.258,0,4.53-0.761,6.399-2.318c4.243-3.536,4.816-9.842,1.281-14.084    c-3.538-4.244-9.843-4.815-14.084-1.281l-0.006,0.005c-4.243,3.536-4.813,9.839-1.278,14.082    C415.301,297.774,418.146,298.998,421.011,298.998z"/>
		<path d="M426.747,195.786c2.454-3.464,2.454-8.099,0-11.563c-21.736-30.679-61.868-49.737-104.735-49.737    s-83,19.059-104.736,49.737c-2.454,3.464-2.454,8.099,0,11.563c21.736,30.679,61.869,49.736,104.736,49.736    S405.011,226.465,426.747,195.786z M357.53,190.004c0,19.585-15.934,35.519-35.519,35.519c-19.584,0-35.518-15.934-35.518-35.519    c0-19.584,15.934-35.518,35.518-35.518C341.596,154.486,357.53,170.42,357.53,190.004z M238.1,190.005    c8.993-10.53,20.856-19.093,34.454-25.174c-3.865,7.562-6.06,16.114-6.06,25.173c0,9.06,2.196,17.612,6.061,25.175    C258.956,209.098,247.093,200.535,238.1,190.005z M371.469,215.178c3.865-7.563,6.061-16.114,6.061-25.175    c0-9.059-2.195-17.611-6.06-25.173c13.597,6.081,25.46,14.644,34.453,25.174C396.929,200.535,385.067,209.097,371.469,215.178z"/>
		<path d="M322.007,200.005h0.008c5.522,0,9.996-4.478,9.996-10s-4.481-10-10.004-10s-10,4.478-10,10    S316.485,200.005,322.007,200.005z"/>
	</g>
</g>















</svg>
